<svg xmlns="http://www.w3.org/2000/svg" xmlns:xlink="http://www.w3.org/1999/xlink" version="1.2" viewBox="0 0 1200 1200" baseProfile="tiny-ps">
  <title>Adamy Gianinni - www.adamy.dev</title>
  <path d="M653.793,1198.859c-11.054-30.783-23.046-164.289-23.902-194.348  c-0.32-11.236,0-24.261-0.196-34.272c-17.755,17.007-36.501,35.091-58.174,46.63c-47.681,25.388-104.256,33.725-158.333,32.573  c-25.004-0.533-50.199-3.235-73.867-11.317c-64.891-22.156-111.42-84.268-125.484-151.379c-5.838-27.856-6.695-57.052,0.25-84.653  c9.889-39.304,35.11-73.426,65.451-100.297S535.033,570.913,555.935,560.87c29.615-14.23,60.809-31.356,91.794-39.457  c2.45-0.641,8.957-2.242,14.087,0.391c5.911,3.034-1.95,16.735-3.783,19.5c-9.978,15.056-22.319,27.112-33.391,40.304  c-33.218,39.578-68.446,78.587-94.565,129.065c-6.93,13.392-11.97,27.859-16.435,42.261c-5.6,18.065-6.966,36.276-6.261,54.783  c0.742,19.456,2.28,39.195,8.217,57.587c2.784,8.624,11.047,15.936,17.559,22.274c11.412,11.107,26.739,17.762,42.498,19.488  c17.184,1.882,31.224-3.323,46.769-9.675c15.556-6.356,30.43-17.264,46.082-14.889c22.29,3.383,42.52,16.647,59.962,30.932  c38,31.125,74.377,63.808,112.377,94.933c15.332,12.558,31.059,25.345,49.698,32.081c18.639,6.737,42.648,10.273,58.165-2.058  c20.664-16.422,14.59-49.913,11.935-76.174c-1.805-17.849-3.179-36.535-8.88-53.492c-5.953-17.706-9.328-36.865-12.849-55.179  c-1.486-7.727-3.99-15.743-4.576-23.556c-0.621-8.275-1.054-16.569-1.429-24.858c-0.762-16.86-1.132-33.736-1.293-50.611  c-0.408-42.724,0.545-85.449,0.006-128.172c-0.261-20.674-2.217-39.848-1.957-61.435c0.438-36.203,1.467-69.072,0.391-105.261  c-0.779-26.211-1.569-57.919-2.348-84.13c-2.094-70.483-25.797-133.716-90.783-168.261c-45.776-24.333-104.241-38.767-155.706-45  c-9,41.478-17.356,81.623-26.348,123.652c-0.465,2.174-2.501,7.848-4.924,9.13c-2.423,1.282-7.891,1.371-8.641,1.304  c-8.544-0.755-14.864-6.559-22.63-12.13c-10.561-7.577-22.455-15.619-33.815-18.261c-4.936-1.148-17.382-0.722-27.065,3.946  c-12.919,6.228-23.356,17.817-27.978,22.141c-17.411,16.288-29.133,36.674-43.826,53.478c-24.489,28.007-43.923,58.24-73.174,80.609  c-15.522,11.87-26.084,23.798-43.826,30.783c-28.63,11.271-64.189,14.251-90.261-2.087c-11.735-7.354-25.043-17.739-31.826-29.739  c-10.808-19.121-17.815-41.495-16.884-63.439c0.7-16.493,6.732-32.338,14.381-46.967c35.888-68.63,106.944-111.373,181.427-132.594  s149.51-23.37,226.957-23.478c2.425-51.085,2.822-107.805,0-158.87c202.957,2.087,383.739-4.957,578.609-0.261  c0,160.435,0.783,500.87,0.783,500.87l-1.565,133.826c0,0,1.728,389.544,0,565.044  C1034.337,1202.935,844.163,1195.109,653.793,1198.859z" fill="#F9F9F9"/>
  <path d="M961.88,971.794c-1.584-21.741-5.173-42.174-10.174-63.391c-4.112-17.446-9.838-37.197-13.304-54.783  c-8.044-40.813-1.733-82.111-3.913-123.652c-4.874-92.897,0-178.435-3.409-274.955c-1.642-46.473-6.001-91.661-11.199-137.871  c-1.219-10.838-5.739-22.435-10.601-32.801c-5.814-12.396-13.131-24.049-22.559-33.977c-22.166-23.344-48.163-45.148-80.253-58.048  c-39.501-15.88-82.565-24.261-125.022-29.87c-1.109,14.087-10.092,42.57-14.674,70.957c-2.782,17.234-11.966,55.942-14.87,59.217  c-7.599,8.57-17.967,3.677-28.174-3.913c-10.174-7.565-24.041-16.972-25.761-17.739c-12.368-5.517-27.099-7.086-38.87-2.087  c-13.155,5.587-24.287,16.81-34.174,27.13c-34.734,36.257-60.381,79.916-96,115.304s-82.229,66.942-130.453,52.962  c-37.264-10.802-65.911-46.474-68.415-85.191c-1.73-26.757,8.046-53.326,23.056-75.543c15.011-22.217,32.039-43.898,52.681-61.01  c25.711-21.315,56.047-37.936,86.935-50.636c24.71-10.16,51.126-15.448,77.493-19.754c62.54-10.212,119.943-12.841,183.311-12.566  c0.001-0.039-0.026-0.09,0.019-0.114l-0.019,0.114c0,0,12.662,1.007,16.86,1.439c2.78,0.286,11.053,1.431,11.079,1.258  c0.001-0.01,0.003-0.02,0.004-0.029c0.002-0.011,0.003-0.021,0.005-0.032c0.002-0.011,0.003-0.023,0.005-0.034  c0.002-0.012,0.004-0.024,0.005-0.036c0.002-0.013,0.004-0.026,0.006-0.038c0.002-0.014,0.004-0.027,0.006-0.041  c0.002-0.014,0.004-0.029,0.006-0.043c0.002-0.015,0.004-0.03,0.007-0.045c0.002-0.016,0.005-0.032,0.007-0.047  c0.002-0.016,0.005-0.033,0.007-0.049c0.003-0.017,0.005-0.034,0.008-0.052c0.003-0.018,0.005-0.036,0.008-0.054  c0.003-0.019,0.006-0.037,0.008-0.056c0.003-0.019,0.006-0.039,0.009-0.058c0.003-0.02,0.006-0.04,0.009-0.06  c0.003-0.021,0.006-0.042,0.009-0.063c0.003-0.022,0.006-0.043,0.01-0.065c0.003-0.022,0.007-0.045,0.01-0.067  c0.003-0.023,0.007-0.046,0.01-0.069c0.004-0.024,0.007-0.047,0.011-0.071c0.004-0.024,0.007-0.049,0.011-0.073  c0.004-0.025,0.008-0.05,0.011-0.075c0.004-0.026,0.008-0.052,0.012-0.078c0.004-0.027,0.008-0.053,0.012-0.08  c0.004-0.027,0.008-0.054,0.012-0.082c0.004-0.028,0.008-0.056,0.013-0.084c0.004-0.029,0.009-0.057,0.013-0.086  c0.004-0.029,0.009-0.059,0.013-0.088c0.004-0.03,0.009-0.06,0.013-0.09c0.005-0.031,0.009-0.061,0.014-0.092  c0.005-0.031,0.009-0.063,0.014-0.094c0.005-0.032,0.01-0.064,0.014-0.096c0.005-0.033,0.01-0.065,0.015-0.098  c0.005-0.033,0.01-0.067,0.015-0.1c0.005-0.034,0.01-0.068,0.015-0.102c0.005-0.035,0.01-0.07,0.016-0.104  c0.005-0.035,0.011-0.071,0.016-0.106c0.005-0.036,0.011-0.072,0.016-0.108c0.005-0.037,0.011-0.074,0.016-0.11  c0.006-0.037,0.011-0.075,0.017-0.112c0.006-0.038,0.011-0.076,0.017-0.114c0.006-0.039,0.012-0.077,0.017-0.116  c0.006-0.039,0.012-0.079,0.018-0.118c0.006-0.04,0.012-0.08,0.018-0.12c0.006-0.041,0.012-0.081,0.018-0.122  c0.006-0.041,0.012-0.083,0.018-0.124c0.006-0.042,0.013-0.084,0.019-0.126c0.006-0.043,0.013-0.085,0.019-0.128  c0.006-0.043,0.013-0.087,0.019-0.13c0.007-0.044,0.013-0.088,0.02-0.132c0.007-0.045,0.013-0.089,0.02-0.134  c0.007-0.045,0.013-0.09,0.02-0.136c0.007-0.046,0.014-0.092,0.021-0.137c0.007-0.046,0.014-0.093,0.021-0.139  c0.007-0.047,0.014-0.094,0.021-0.141c0.007-0.048,0.014-0.095,0.021-0.143c0.007-0.048,0.014-0.097,0.022-0.145  c0.007-0.049,0.015-0.098,0.022-0.147c0.007-0.05,0.015-0.099,0.022-0.149c0.007-0.05,0.015-0.1,0.022-0.15  c0.008-0.051,0.015-0.102,0.023-0.152c0.008-0.051,0.015-0.103,0.023-0.154c0.008-0.052,0.016-0.104,0.023-0.156  c0.008-0.053,0.016-0.105,0.024-0.158c0.008-0.053,0.016-0.106,0.024-0.16c0.008-0.054,0.016-0.108,0.024-0.161  c0.008-0.054,0.016-0.109,0.024-0.163c0.008-0.055,0.016-0.11,0.025-0.165c0.008-0.056,0.017-0.111,0.025-0.167  c0.008-0.056,0.017-0.112,0.025-0.168c0.008-0.057,0.017-0.113,0.025-0.17c0.009-0.057,0.017-0.115,0.026-0.172  c0.009-0.058,0.017-0.116,0.026-0.174c0.009-0.058,0.017-0.117,0.026-0.175c0.009-0.059,0.018-0.118,0.026-0.177  c0.009-0.06,0.018-0.119,0.027-0.179c0.009-0.06,0.018-0.12,0.027-0.181c0.009-0.061,0.018-0.122,0.027-0.182  c0.009-0.061,0.018-0.123,0.028-0.184c0.009-0.062,0.018-0.124,0.028-0.186c0.009-0.062,0.019-0.125,0.028-0.187  c0.009-0.063,0.019-0.126,0.028-0.189c0.009-0.064,0.019-0.127,0.029-0.191c0.01-0.064,0.019-0.128,0.029-0.192  c0.01-0.065,0.019-0.129,0.029-0.194c0.01-0.065,0.019-0.13,0.029-0.196c0.01-0.066,0.02-0.132,0.029-0.197  c0.01-0.066,0.02-0.133,0.03-0.199c0.01-0.067,0.02-0.134,0.03-0.201c0.01-0.067,0.02-0.135,0.03-0.202  c0.01-0.068,0.02-0.136,0.03-0.204c0.01-0.068,0.021-0.137,0.031-0.205c0.01-0.069,0.021-0.138,0.031-0.207  c0.01-0.07,0.021-0.139,0.031-0.209c0.01-0.07,0.021-0.14,0.031-0.21c0.011-0.071,0.021-0.141,0.032-0.212  c0.011-0.071,0.021-0.142,0.032-0.213c0.011-0.072,0.021-0.143,0.032-0.215c0.011-0.072,0.022-0.144,0.032-0.216  c0.011-0.073,0.022-0.145,0.033-0.218c0.011-0.073,0.022-0.146,0.033-0.22c0.011-0.074,0.022-0.147,0.033-0.221  c0.011-0.074,0.022-0.148,0.033-0.223c0.011-0.075,0.022-0.149,0.034-0.224c0.011-0.075,0.022-0.15,0.034-0.226  c0.011-0.076,0.023-0.151,0.034-0.227c0.011-0.076,0.023-0.152,0.034-0.229c0.011-0.077,0.023-0.153,0.034-0.23  c0.012-0.077,0.023-0.154,0.035-0.232c0.012-0.078,0.023-0.155,0.035-0.233c0.012-0.078,0.023-0.156,0.035-0.235  c0.012-0.079,0.023-0.157,0.035-0.236c0.012-0.079,0.024-0.158,0.035-0.237c0.012-0.08,0.024-0.159,0.036-0.239  c0.012-0.08,0.024-0.16,0.036-0.24c0.012-0.081,0.024-0.161,0.036-0.242c0.012-0.081,0.024-0.162,0.036-0.243  c0.012-0.082,0.024-0.163,0.036-0.245c0.012-0.082,0.025-0.164,0.037-0.246c0.012-0.082,0.025-0.165,0.037-0.247  c0.012-0.083,0.025-0.166,0.037-0.249c0.012-0.083,0.025-0.167,0.037-0.25c0.013-0.084,0.025-0.168,0.038-0.252  c0.013-0.084,0.025-0.169,0.038-0.253c0.013-0.085,0.025-0.17,0.038-0.254c0.013-0.085,0.025-0.17,0.038-0.256  c0.013-0.086,0.026-0.171,0.038-0.257c0.013-0.086,0.026-0.172,0.039-0.258c0.013-0.087,0.026-0.173,0.039-0.26  c0.013-0.087,0.026-0.174,0.039-0.261c0.013-0.087,0.026-0.175,0.039-0.262c0.013-0.088,0.026-0.176,0.039-0.264  c0.013-0.088,0.026-0.177,0.04-0.265c0.013-0.089,0.027-0.177,0.04-0.266c0.013-0.089,0.027-0.178,0.04-0.267  c0.013-0.09,0.027-0.179,0.04-0.269c0.013-0.09,0.027-0.18,0.04-0.27c0.013-0.09,0.027-0.181,0.041-0.271  c0.014-0.091,0.027-0.182,0.041-0.273c0.014-0.091,0.027-0.183,0.041-0.274c0.014-0.092,0.027-0.183,0.041-0.275  c0.014-0.092,0.028-0.184,0.041-0.276c0.014-0.092,0.028-0.185,0.041-0.277c0.014-0.093,0.028-0.186,0.042-0.279  c0.014-0.093,0.028-0.187,0.042-0.28c0.014-0.094,0.028-0.187,0.042-0.281c0.014-0.094,0.028-0.188,0.042-0.282  c0.014-0.095,0.028-0.189,0.042-0.284c0.014-0.095,0.028-0.19,0.043-0.285c0.014-0.095,0.028-0.191,0.043-0.286  c0.014-0.096,0.029-0.191,0.043-0.287c0.014-0.096,0.029-0.192,0.043-0.288c0.014-0.096,0.029-0.193,0.043-0.289  c0.014-0.097,0.029-0.194,0.043-0.291c0.015-0.097,0.029-0.194,0.044-0.292c0.015-0.098,0.029-0.195,0.044-0.293  c0.015-0.098,0.029-0.196,0.044-0.294c0.015-0.098,0.029-0.197,0.044-0.295c0.015-0.099,0.03-0.197,0.044-0.296  c0.015-0.099,0.03-0.198,0.044-0.297c0.015-0.099,0.03-0.199,0.045-0.298c0.015-0.1,0.03-0.2,0.045-0.299  c0.015-0.1,0.03-0.2,0.045-0.301c0.015-0.101,0.03-0.201,0.045-0.302c0.015-0.101,0.03-0.202,0.045-0.303  c0.015-0.101,0.03-0.202,0.045-0.304c0.015-0.102,0.03-0.203,0.046-0.305c0.015-0.102,0.03-0.204,0.046-0.306  c0.015-0.102,0.031-0.205,0.046-0.307c0.015-0.103,0.031-0.205,0.046-0.308c0.015-0.103,0.031-0.206,0.046-0.309  c0.015-0.103,0.031-0.207,0.046-0.31c0.016-0.104,0.031-0.207,0.046-0.311c0.016-0.104,0.031-0.208,0.047-0.312  c0.016-0.104,0.031-0.209,0.047-0.313c0.016-0.105,0.031-0.209,0.047-0.314c0.016-0.105,0.031-0.21,0.047-0.315  c0.016-0.105,0.031-0.211,0.047-0.316c0.016-0.106,0.032-0.211,0.047-0.317c0.016-0.106,0.032-0.212,0.047-0.318  c0.016-0.106,0.032-0.212,0.048-0.319c0.016-0.107,0.032-0.213,0.048-0.32c0.016-0.107,0.032-0.214,0.048-0.321  c0.016-0.107,0.032-0.214,0.048-0.322c0.016-0.107,0.032-0.215,0.048-0.322c0.016-0.108,0.032-0.216,0.048-0.323  c0.016-0.108,0.032-0.216,0.048-0.324c0.016-0.108,0.032-0.217,0.049-0.325c0.016-0.109,0.032-0.217,0.049-0.326  c0.016-0.109,0.033-0.218,0.049-0.327c0.016-0.109,0.033-0.219,0.049-0.328c0.016-0.11,0.033-0.219,0.049-0.329  c0.016-0.11,0.033-0.22,0.049-0.33c0.016-0.11,0.033-0.22,0.049-0.33c0.016-0.11,0.033-0.221,0.049-0.331  c0.016-0.111,0.033-0.221,0.05-0.332c0.017-0.111,0.033-0.222,0.05-0.333c0.017-0.111,0.033-0.222,0.05-0.334  c0.017-0.112,0.033-0.223,0.05-0.335c0.017-0.112,0.033-0.224,0.05-0.335c0.017-0.112,0.034-0.224,0.05-0.336  c0.017-0.112,0.034-0.225,0.05-0.337c0.017-0.113,0.034-0.225,0.05-0.338c0.017-0.113,0.034-0.226,0.051-0.339  c0.017-0.113,0.034-0.226,0.051-0.339c0.017-0.113,0.034-0.227,0.051-0.34c0.017-0.114,0.034-0.227,0.051-0.341  c0.017-0.114,0.034-0.228,0.051-0.342c0.017-0.114,0.034-0.228,0.051-0.342c0.017-0.114,0.034-0.229,0.051-0.343  c0.017-0.115,0.034-0.229,0.051-0.344c0.017-0.115,0.034-0.23,0.051-0.344c0.017-0.115,0.034-0.23,0.052-0.345  c0.017-0.115,0.034-0.231,0.052-0.346c0.017-0.116,0.035-0.231,0.052-0.347c0.017-0.116,0.035-0.232,0.052-0.347  c0.017-0.116,0.035-0.232,0.052-0.348c0.017-0.116,0.035-0.232,0.052-0.349c0.017-0.116,0.035-0.233,0.052-0.349  c0.017-0.117,0.035-0.233,0.052-0.35c0.017-0.117,0.035-0.234,0.052-0.351c0.017-0.117,0.035-0.234,0.052-0.351  c0.018-0.117,0.035-0.235,0.053-0.352c0.018-0.118,0.035-0.235,0.053-0.353c0.018-0.118,0.035-0.235,0.053-0.353  c0.018-0.118,0.035-0.236,0.053-0.354c0.018-0.118,0.035-0.236,0.053-0.354c0.018-0.118,0.035-0.237,0.053-0.355  c0.018-0.119,0.035-0.237,0.053-0.356c0.018-0.119,0.035-0.237,0.053-0.356c0.018-0.119,0.036-0.238,0.053-0.357  c0.018-0.119,0.036-0.238,0.053-0.357c0.018-0.119,0.036-0.239,0.053-0.358c0.018-0.119,0.036-0.239,0.054-0.358  c0.018-0.12,0.036-0.239,0.054-0.359c0.018-0.12,0.036-0.24,0.054-0.36c0.018-0.12,0.036-0.24,0.054-0.36  c0.018-0.12,0.036-0.24,0.054-0.361c0.018-0.12,0.036-0.241,0.054-0.361c0.018-0.121,0.036-0.241,0.054-0.362  c0.018-0.121,0.036-0.241,0.054-0.362c0.018-0.121,0.036-0.242,0.054-0.363c0.018-0.121,0.036-0.242,0.054-0.363  c0.018-0.121,0.036-0.242,0.054-0.364c0.018-0.121,0.036-0.243,0.054-0.364c0.018-0.122,0.036-0.243,0.054-0.365  c0.018-0.122,0.036-0.243,0.055-0.365c0.018-0.122,0.036-0.244,0.055-0.366c0.018-0.122,0.036-0.244,0.055-0.366  c0.018-0.122,0.036-0.244,0.055-0.366c0.018-0.122,0.037-0.245,0.055-0.367c0.018-0.122,0.037-0.245,0.055-0.367  c0.018-0.123,0.037-0.245,0.055-0.368c0.018-0.123,0.037-0.245,0.055-0.368c0.018-0.123,0.037-0.246,0.055-0.369  c0.018-0.123,0.037-0.246,0.055-0.369c0.018-0.123,0.037-0.246,0.055-0.369c0.018-0.123,0.037-0.246,0.055-0.37  c0.018-0.123,0.037-0.247,0.055-0.37c0.018-0.123,0.037-0.247,0.055-0.37c0.018-0.124,0.037-0.247,0.055-0.371  c0.018-0.124,0.037-0.247,0.055-0.371c0.018-0.124,0.037-0.248,0.055-0.371c0.018-0.124,0.037-0.248,0.056-0.372  c0.019-0.124,0.037-0.248,0.056-0.372c0.019-0.124,0.037-0.248,0.056-0.372c0.019-0.124,0.037-0.249,0.056-0.373  c0.019-0.124,0.037-0.249,0.056-0.373c0.019-0.124,0.037-0.249,0.056-0.373c0.019-0.125,0.037-0.249,0.056-0.374  c0.019-0.125,0.037-0.249,0.056-0.374c0.019-0.125,0.037-0.25,0.056-0.374c0.019-0.125,0.037-0.25,0.056-0.375  c0.019-0.125,0.037-0.25,0.056-0.375c0.019-0.125,0.037-0.25,0.056-0.375c0.019-0.125,0.037-0.25,0.056-0.375  c0.019-0.125,0.037-0.25,0.056-0.376c0.019-0.125,0.037-0.251,0.056-0.376c0.019-0.125,0.037-0.251,0.056-0.376  c0.019-0.125,0.037-0.251,0.056-0.376c0.019-0.125,0.037-0.251,0.056-0.376c0.019-0.126,0.038-0.251,0.056-0.377  c0.019-0.126,0.038-0.251,0.056-0.377c0.019-0.126,0.038-0.251,0.056-0.377c0.019-0.126,0.038-0.251,0.056-0.377  c0.019-0.126,0.038-0.252,0.056-0.377c0.019-0.126,0.038-0.252,0.056-0.378c0.019-0.126,0.038-0.252,0.056-0.378  c0.019-0.126,0.038-0.252,0.056-0.378c0.019-0.126,0.038-0.252,0.056-0.378c0.019-0.126,0.038-0.252,0.057-0.378  c0.019-0.126,0.038-0.252,0.057-0.378c0.019-0.126,0.038-0.252,0.057-0.378c0.019-0.126,0.038-0.252,0.057-0.379  c0.019-0.126,0.038-0.252,0.057-0.379c0.019-0.126,0.038-0.253,0.057-0.379c0.019-0.126,0.038-0.253,0.057-0.379  c0.019-0.126,0.038-0.253,0.057-0.379c0.019-0.126,0.038-0.253,0.057-0.379c0.019-0.126,0.038-0.253,0.057-0.379  c0.019-0.126,0.038-0.253,0.057-0.379c0.019-0.126,0.038-0.253,0.057-0.379c0.019-0.126,0.038-0.253,0.057-0.379  c0.019-0.126,0.038-0.253,0.057-0.379c0.019-0.126,0.038-0.253,0.057-0.379c0.019-0.126,0.038-0.253,0.057-0.379  c0.019-0.126,0.038-0.253,0.057-0.379c0.019-0.126,0.038-0.253,0.057-0.379c0.019-0.126,0.038-0.253,0.057-0.379  c0.019-0.126,0.038-0.253,0.057-0.379c0.019-0.126,0.038-0.253,0.057-0.379c0.019-0.126,0.038-0.253,0.057-0.379  c0.019-0.126,0.038-0.253,0.057-0.379c0.019-0.126,0.038-0.253,0.057-0.379c0.019-0.126,0.038-0.253,0.057-0.379  c0.019-0.126,0.038-0.253,0.057-0.379c0.019-0.126,0.038-0.253,0.057-0.379c0.019-0.126,0.038-0.253,0.057-0.379  c0.019-0.126,0.038-0.253,0.057-0.379c0.019-0.126,0.038-0.253,0.057-0.379c0.019-0.126,0.038-0.253,0.057-0.379  c0.019-0.126,0.038-0.253,0.057-0.379c0.019-0.126,0.038-0.252,0.057-0.379c0.019-0.126,0.038-0.252,0.057-0.379  c0.019-0.126,0.038-0.252,0.057-0.379c0.019-0.126,0.038-0.252,0.057-0.378c0.019-0.126,0.038-0.252,0.056-0.378  c0.019-0.126,0.038-0.252,0.057-0.378c0.019-0.126,0.038-0.252,0.056-0.378c0.019-0.126,0.038-0.252,0.056-0.378  c0.019-0.126,0.038-0.252,0.056-0.378c0.019-0.126,0.038-0.252,0.056-0.378c0.019-0.126,0.038-0.252,0.056-0.377  c0.019-0.126,0.038-0.251,0.056-0.377c0.019-0.126,0.038-0.251,0.056-0.377c0.019-0.126,0.038-0.251,0.056-0.377  c0.019-0.126,0.038-0.251,0.056-0.377c0.019-0.125,0.037-0.251,0.056-0.376c0.019-0.125,0.037-0.251,0.056-0.376  c0.019-0.125,0.037-0.251,0.056-0.376c0.019-0.125,0.037-0.251,0.056-0.376c0.019-0.125,0.037-0.25,0.056-0.376  c0.019-0.125,0.037-0.25,0.056-0.375c0.019-0.125,0.037-0.25,0.056-0.375c0.019-0.125,0.037-0.25,0.056-0.375  c0.019-0.125,0.037-0.25,0.056-0.375c0.019-0.125,0.037-0.249,0.056-0.374c0.019-0.125,0.037-0.249,0.056-0.374  c0.019-0.125,0.037-0.249,0.056-0.374c0.019-0.124,0.037-0.249,0.056-0.373c0.019-0.124,0.037-0.249,0.056-0.373  c0.019-0.124,0.037-0.249,0.056-0.373c0.018-0.124,0.037-0.248,0.056-0.372c0.019-0.124,0.037-0.248,0.056-0.372  c0.018-0.124,0.037-0.248,0.056-0.372c0.018-0.124,0.037-0.248,0.055-0.371c0.018-0.124,0.037-0.247,0.055-0.371  c0.018-0.124,0.037-0.247,0.055-0.371c0.018-0.123,0.037-0.247,0.055-0.37c0.018-0.123,0.037-0.247,0.055-0.37  c0.018-0.123,0.037-0.246,0.055-0.37c0.018-0.123,0.037-0.246,0.055-0.369c0.018-0.123,0.037-0.246,0.055-0.369  c0.018-0.123,0.037-0.246,0.055-0.368c0.018-0.123,0.037-0.245,0.055-0.368c0.018-0.123,0.037-0.245,0.055-0.368  c0.018-0.122,0.037-0.245,0.055-0.367c0.018-0.122,0.036-0.245,0.055-0.367c0.018-0.122,0.036-0.244,0.055-0.366  c0.018-0.122,0.036-0.244,0.055-0.366c0.018-0.122,0.036-0.244,0.055-0.365c0.018-0.122,0.036-0.243,0.055-0.365  c0.018-0.122,0.036-0.243,0.054-0.365c0.018-0.121,0.036-0.243,0.054-0.364c0.018-0.121,0.036-0.242,0.054-0.364  c0.018-0.121,0.036-0.242,0.054-0.363c0.018-0.121,0.036-0.242,0.054-0.363c0.018-0.121,0.036-0.241,0.054-0.362  c0.018-0.121,0.036-0.241,0.054-0.362c0.018-0.12,0.036-0.241,0.054-0.361c0.018-0.12,0.036-0.24,0.054-0.361  c0.018-0.12,0.036-0.24,0.054-0.36c0.018-0.12,0.036-0.24,0.054-0.359c0.018-0.12,0.036-0.239,0.054-0.359  c0.018-0.119,0.036-0.239,0.054-0.358c0.018-0.119,0.036-0.239,0.053-0.358c0.018-0.119,0.036-0.238,0.053-0.357  c0.018-0.119,0.036-0.238,0.053-0.357c0.018-0.119,0.035-0.237,0.053-0.356c0.018-0.119,0.035-0.237,0.053-0.356  c0.018-0.118,0.035-0.237,0.053-0.355c0.018-0.118,0.035-0.236,0.053-0.354c0.018-0.118,0.035-0.236,0.053-0.354  c0.018-0.118,0.035-0.235,0.053-0.353c0.018-0.117,0.035-0.235,0.053-0.352c0.018-0.117,0.035-0.235,0.053-0.352  c0.018-0.117,0.035-0.234,0.052-0.351c0.017-0.117,0.035-0.234,0.052-0.351c0.017-0.117,0.035-0.233,0.052-0.35  c0.017-0.116,0.035-0.233,0.052-0.349c0.017-0.116,0.035-0.232,0.052-0.349c0.017-0.116,0.035-0.232,0.052-0.348  c0.017-0.116,0.035-0.231,0.052-0.347c0.017-0.116,0.034-0.231,0.052-0.347c0.017-0.115,0.034-0.231,0.052-0.346  c0.017-0.115,0.034-0.23,0.052-0.345c0.017-0.115,0.034-0.23,0.051-0.344c0.017-0.115,0.034-0.229,0.051-0.344  c0.017-0.114,0.034-0.229,0.051-0.343c0.017-0.114,0.034-0.228,0.051-0.342c0.017-0.114,0.034-0.228,0.051-0.341  c0.017-0.114,0.034-0.227,0.051-0.341c0.017-0.113,0.034-0.227,0.051-0.34c0.017-0.113,0.034-0.226,0.051-0.339  c0.017-0.113,0.034-0.226,0.051-0.338c0.017-0.113,0.034-0.225,0.05-0.338c0.017-0.112,0.034-0.225,0.05-0.337  c0.017-0.112,0.033-0.224,0.05-0.336c0.017-0.112,0.033-0.223,0.05-0.335c0.017-0.111,0.033-0.223,0.05-0.334  c0.017-0.111,0.033-0.222,0.05-0.334c0.017-0.111,0.033-0.222,0.05-0.333c0.017-0.111,0.033-0.221,0.05-0.332  c0.016-0.11,0.033-0.221,0.049-0.331c0.016-0.11,0.033-0.22,0.049-0.33c0.016-0.11,0.033-0.22,0.049-0.329  c0.016-0.11,0.033-0.219,0.049-0.329c0.016-0.109,0.033-0.218,0.049-0.328c0.016-0.109,0.033-0.218,0.049-0.327  c0.016-0.109,0.032-0.217,0.049-0.326c0.016-0.108,0.032-0.217,0.049-0.325c0.016-0.108,0.032-0.216,0.048-0.324  c0.016-0.108,0.032-0.215,0.048-0.323c0.016-0.107,0.032-0.215,0.048-0.322c0.016-0.107,0.032-0.214,0.048-0.321  c0.016-0.107,0.032-0.214,0.048-0.32c0.016-0.107,0.032-0.213,0.048-0.32c0.016-0.106,0.032-0.212,0.048-0.319  c0.016-0.106,0.032-0.212,0.047-0.318c0.016-0.106,0.032-0.211,0.047-0.317c0.016-0.105,0.031-0.21,0.047-0.316  c0.016-0.105,0.031-0.21,0.047-0.315c0.016-0.105,0.031-0.209,0.047-0.314c0.016-0.104,0.031-0.209,0.047-0.313  c0.016-0.104,0.031-0.208,0.047-0.312c0.015-0.104,0.031-0.207,0.046-0.311c0.015-0.103,0.031-0.207,0.046-0.31  c0.015-0.103,0.031-0.206,0.046-0.309c0.015-0.103,0.031-0.205,0.046-0.308c0.015-0.102,0.031-0.204,0.046-0.307  c0.015-0.102,0.03-0.204,0.046-0.306c0.015-0.102,0.03-0.203,0.046-0.305c0.015-0.101,0.03-0.202,0.045-0.304  c0.015-0.101,0.03-0.202,0.045-0.302c0.015-0.1,0.03-0.201,0.045-0.301c0.015-0.1,0.03-0.2,0.045-0.3  c0.015-0.1,0.03-0.2,0.045-0.299c0.015-0.099,0.03-0.199,0.045-0.298c0.015-0.099,0.03-0.198,0.044-0.297  c0.015-0.099,0.029-0.197,0.044-0.296c0.015-0.098,0.029-0.197,0.044-0.295c0.015-0.098,0.029-0.196,0.044-0.294  c0.015-0.098,0.029-0.195,0.044-0.293c0.015-0.097,0.029-0.194,0.044-0.291c0.014-0.097,0.029-0.194,0.043-0.29  c0.014-0.096,0.029-0.193,0.043-0.289c0.014-0.096,0.029-0.192,0.043-0.288c0.014-0.096,0.029-0.191,0.043-0.287  c0.014-0.095,0.028-0.19,0.043-0.286c0.014-0.095,0.028-0.19,0.042-0.285c0.014-0.094,0.028-0.189,0.042-0.283  c0.014-0.094,0.028-0.188,0.042-0.282c0.014-0.094,0.028-0.187,0.042-0.281c0.014-0.093,0.028-0.186,0.042-0.28  c0.014-0.093,0.028-0.186,0.042-0.279c0.014-0.092,0.028-0.185,0.041-0.277c0.014-0.092,0.028-0.184,0.041-0.276  c0.014-0.092,0.027-0.183,0.041-0.275c0.014-0.091,0.027-0.182,0.041-0.274c0.014-0.091,0.027-0.182,0.041-0.272  c0.013-0.09,0.027-0.181,0.04-0.271c0.013-0.09,0.027-0.18,0.04-0.27c0.013-0.09,0.027-0.179,0.04-0.269  c0.013-0.089,0.027-0.178,0.04-0.267c0.013-0.089,0.026-0.177,0.04-0.266c0.013-0.088,0.026-0.176,0.039-0.265  c0.013-0.088,0.026-0.176,0.039-0.263c0.013-0.087,0.026-0.175,0.039-0.262c0.013-0.087,0.026-0.174,0.039-0.261  c0.013-0.086,0.026-0.173,0.039-0.259c0.013-0.086,0.026-0.172,0.039-0.258c0.013-0.086,0.026-0.171,0.038-0.257  c0.013-0.085,0.025-0.17,0.038-0.255c0.013-0.085,0.025-0.169,0.038-0.254c0.013-0.084,0.025-0.168,0.038-0.253  c0.013-0.084,0.025-0.168,0.038-0.251c0.012-0.083,0.025-0.167,0.037-0.25c0.012-0.083,0.025-0.166,0.037-0.249  c0.012-0.082,0.025-0.165,0.037-0.247c0.012-0.082,0.024-0.164,0.037-0.246c0.012-0.081,0.024-0.163,0.036-0.244  c0.012-0.081,0.024-0.162,0.036-0.243c0.012-0.081,0.024-0.161,0.036-0.242c0.012-0.08,0.024-0.16,0.036-0.24  c0.012-0.08,0.024-0.159,0.036-0.239c0.012-0.079,0.024-0.158,0.035-0.237c0.012-0.079,0.023-0.157,0.035-0.236  c0.012-0.078,0.023-0.156,0.035-0.234c0.012-0.078,0.023-0.155,0.035-0.233c0.011-0.077,0.023-0.154,0.035-0.231  c0.011-0.077,0.023-0.153,0.034-0.23c0.011-0.076,0.023-0.152,0.034-0.228c0.011-0.076,0.023-0.151,0.034-0.227  c0.011-0.075,0.022-0.15,0.034-0.225c0.011-0.075,0.022-0.149,0.033-0.224c0.011-0.074,0.022-0.148,0.033-0.222  c0.011-0.074,0.022-0.147,0.033-0.221c0.011-0.073,0.022-0.146,0.033-0.219c0.011-0.073,0.022-0.145,0.033-0.218  c0.011-0.072,0.021-0.144,0.032-0.216c0.011-0.072,0.021-0.143,0.032-0.215c0.011-0.071,0.021-0.142,0.032-0.213  c0.01-0.071,0.021-0.141,0.032-0.212c0.01-0.07,0.021-0.14,0.031-0.21c0.01-0.069,0.021-0.139,0.031-0.208  c0.01-0.069,0.021-0.138,0.031-0.207c0.01-0.068,0.02-0.137,0.031-0.205c0.01-0.068,0.02-0.136,0.03-0.204  c0.01-0.067,0.02-0.135,0.03-0.202c0.01-0.067,0.02-0.134,0.03-0.2c0.01-0.066,0.02-0.132,0.03-0.199  c0.01-0.066,0.02-0.131,0.029-0.197c0.01-0.065,0.019-0.13,0.029-0.195c0.01-0.065,0.019-0.129,0.029-0.194  c0.01-0.064,0.019-0.128,0.029-0.192c0.01-0.063,0.019-0.127,0.029-0.19c0.009-0.063,0.019-0.126,0.028-0.189  c0.009-0.062,0.019-0.125,0.028-0.187c0.009-0.062,0.018-0.124,0.028-0.185c0.009-0.061,0.018-0.123,0.027-0.184  c0.009-0.061,0.018-0.121,0.027-0.182c0.009-0.06,0.018-0.12,0.027-0.18c0.009-0.06,0.018-0.119,0.027-0.179  c0.009-0.059,0.018-0.118,0.026-0.177c0.009-0.058,0.017-0.117,0.026-0.175c0.009-0.058,0.017-0.116,0.026-0.173  c0.009-0.057,0.017-0.114,0.026-0.172c0.008-0.057,0.017-0.113,0.025-0.17c0.008-0.056,0.017-0.112,0.025-0.168  c0.008-0.055,0.017-0.111,0.025-0.166c0.008-0.055,0.016-0.11,0.025-0.165c0.008-0.054,0.016-0.109,0.024-0.163  c0.008-0.054,0.016-0.107,0.024-0.161c0.008-0.053,0.016-0.106,0.024-0.159c0.008-0.052,0.016-0.105,0.024-0.157  c0.008-0.052,0.016-0.104,0.023-0.156c0.008-0.051,0.015-0.103,0.023-0.154c0.008-0.051,0.015-0.101,0.023-0.152  c0.008-0.05,0.015-0.1,0.022-0.15c0.007-0.049,0.015-0.099,0.022-0.148c0.007-0.049,0.015-0.098,0.022-0.147  c0.007-0.048,0.014-0.096,0.022-0.145c0.007-0.048,0.014-0.095,0.021-0.143c0.007-0.047,0.014-0.094,0.021-0.141  c0.007-0.046,0.014-0.093,0.021-0.139c0.007-0.046,0.014-0.091,0.021-0.137c0.007-0.045,0.013-0.09,0.02-0.135  c0.007-0.044,0.013-0.089,0.02-0.133c0.007-0.044,0.013-0.088,0.02-0.131c0.006-0.043,0.013-0.086,0.019-0.13  c0.006-0.043,0.013-0.085,0.019-0.128c0.006-0.042,0.013-0.084,0.019-0.126c0.006-0.041,0.012-0.083,0.018-0.124  c0.006-0.041,0.012-0.081,0.018-0.122c0.006-0.04,0.012-0.08,0.018-0.12c0.006-0.039,0.012-0.079,0.018-0.118  c0.006-0.039,0.012-0.077,0.017-0.116c0.006-0.038,0.011-0.076,0.017-0.114c0.006-0.037,0.011-0.075,0.017-0.112  c0.005-0.037,0.011-0.073,0.016-0.11c0.005-0.036,0.011-0.072,0.016-0.108c0.005-0.035,0.011-0.071,0.016-0.106  c0.005-0.035,0.01-0.069,0.016-0.104c0.005-0.034,0.01-0.068,0.015-0.102c0.005-0.033,0.01-0.067,0.015-0.1  c0.005-0.033,0.01-0.065,0.015-0.098c0.005-0.032,0.01-0.064,0.014-0.096c0.005-0.031,0.009-0.063,0.014-0.094  c0.005-0.031,0.009-0.061,0.014-0.092c0.005-0.03,0.009-0.06,0.013-0.09c0.004-0.029,0.009-0.058,0.013-0.088  c0.004-0.029,0.009-0.057,0.013-0.086c0.004-0.028,0.008-0.056,0.012-0.083c0.004-0.027,0.008-0.054,0.012-0.081  c0.004-0.026,0.008-0.053,0.012-0.079c0.004-0.026,0.008-0.051,0.012-0.077c0.004-0.025,0.008-0.05,0.011-0.075  c0.004-0.024,0.007-0.049,0.011-0.073c0.003-0.024,0.007-0.047,0.011-0.071c0.003-0.023,0.007-0.046,0.01-0.069  c0.003-0.022,0.007-0.044,0.01-0.067c0.003-0.021,0.006-0.043,0.01-0.064c0.003-0.021,0.006-0.041,0.009-0.062  c0.003-0.02,0.006-0.04,0.009-0.06c0.003-0.019,0.006-0.039,0.009-0.058c0.003-0.019,0.006-0.037,0.008-0.056  c0.003-0.018,0.005-0.036,0.008-0.054c0.003-0.017,0.005-0.034,0.008-0.051c0.002-0.016,0.005-0.033,0.007-0.049  c0.002-0.016,0.005-0.031,0.007-0.047c0.002-0.015,0.004-0.03,0.007-0.045c0.002-0.014,0.004-0.028,0.006-0.043  c0.002-0.013,0.004-0.027,0.006-0.04c0.002-0.013,0.004-0.025,0.006-0.038c0.002-0.012,0.004-0.024,0.005-0.036  c0.002-0.011,0.003-0.022,0.005-0.034c0.002-0.01,0.003-0.021,0.005-0.031c0.001-0.01,0.003-0.019,0.03-0.198  c-0.047,0.001-0.094-0.001-0.142-0.001c-0.043,0-0.081,0.001-0.122,0.007c-0.114,0.016-0.229,0.033-0.344,0.042  c-0.158,0.013-0.315,0.003-0.473,0c-0.163-0.004-0.324,0.026-0.487,0.025c-0.174-0.001-0.347,0.005-0.521,0.004  c-0.083,0-0.157-0.025-0.224-0.061c-1.028,0.268-2.134,0.425-3.263,0.554c-5.005,0.572-10.059,0.33-15.077,0.613  c-1.858,2.402-4.778,4.017-8.78,3.943c-15.348-0.285-30.491,2.253-45.898,1c-7.957-0.647-15.833-2.001-23.804-2.602  c-7.31-0.551-14.635-0.844-21.962-1.066c-1.581,0.903-3.501,1.438-5.77,1.43c-25.124-0.085-50.194,1.295-75.326,1.223  c-45.463-0.131-91.013-3.444-136.465-1.92c-11.201,0.376-22.359,1.424-33.557,1.845c-11.228,0.422-22.454,0.17-33.681,0.423  c-13.785,0.311-28.22,4.17-40.424-3.287c-15.564-0.31-31.12-1.044-46.678-1.528c-10.288-0.32-20.587-0.523-30.878-0.212  c-8.409,0.254-16.74,1.639-25.141,1.861c-1.53,0.112-3.074,0.211-4.634,0.321c-7.277,0.509-14.569,0.727-21.857,1.008  c-15.483,0.596-30.884,2.76-46.36,3.137C68.7,7.128,53.641,6.47,38.494,7.378C28.419,7.982,18.358,8.8,8.282,9.334  c0.191,50.835,6.217,101.493,9.411,152.203c1.668,26.483,1.754,52.908,2.143,79.426c0.395,26.991,1.427,53.969,2.792,80.927  c2.699,53.325,6.697,106.573,9.701,159.881c3,53.229,5.006,106.563,3.701,159.881c-1.301,53.171-2.285,106.258-2.285,159.451  c0,7.977-3.082,14.973-8.052,20.215c-0.262,23.852-0.725,47.701-1.255,71.548c-1.442,64.886-3.319,129.782-2.704,194.691  c0.328,34.603,1.393,69.217,3.606,103.751c20.499-1.225,40.983-2.785,61.457-4.343c42.443-3.23,84.949-6.386,127.542-6.274  c41.985,0.111,83.927,3.554,125.873,5.084c41.379,1.509,82.856,1.471,124.086-2.766c20.407-2.097,40.683-4.959,61.176-6.207  c20.123-1.225,40.274-1.242,60.413-0.429c6.012,0.243,11.461,1.999,16.025,4.914c7.119-2.178,15.564,0.169,21.873,3.503  c6.189,3.27,10.439,9.184,12.966,15.573c4.847,0.143,9.695,0.337,14.534-0.046c0.354,0.131,0.725,0.215,1.104,0.244  c0.171,0.013,0.33-0.1,0.421-0.248c0.049,0.131,0.096,0.262,0.128,0.4c0.059,0.255,0.365,0.43,0.615,0.349  c0.266-0.086,0.413-0.342,0.349-0.615c-0.082-0.353-0.234-0.686-0.389-1.012c-0.061-0.128-0.122-0.256-0.181-0.384  c-14.345-75.122-24.778-148.159-23.213-227.976c-12.652,10.826-35.982,35.266-61.043,49.696  c-25.062,14.429-50.878,21.194-57.603,22.174c-27.885,4.064-56.575,5.834-83.348,6.391c-16.62,0.346-76.826,0.261-110.331-16.5  c-26.041-13.027-51.422-36.457-65.478-53.413c-26.352-31.788-37.203-72.229-39.348-89.728c-3.301-26.928-2.914-54.222,0.935-81.077  c1.511-10.545,10.562-37.156,26.87-61.304c15.748-23.319,38.603-44.251,49.229-51.23c93.026-61.099,315.494-162.834,359.268-174.273  c1.753-0.458,8.631-1.92,12.368,0.667c3.49,2.416,3.863,8.496,1.19,12.783c-10.37,16.63-35.185,43.663-47.25,58.794  c-16.394,20.559-34.317,39.781-49.043,61.565c-6.455,9.548-21.535,36.265-34.66,62.21c-11.707,23.143-21.858,45.671-22.944,54.855  c-2.196,18.576-2.136,41.213-0.783,59.87c1.265,17.441,7.381,38.557,18.668,51.913c10.569,12.507,31.391,22.532,47.739,23.478  s37.456-7.265,52.826-12.913c14.785-5.433,21.913-8.217,42.391-9.783c4.227-0.323,22.976,2.103,37.565,10.957  c14.59,8.853,27.473,22.654,34.826,28.957c21.913,18.783,42.175,36.333,63.783,55.956c14.594,13.253,31.949,27.328,47.739,39.13  c10.241,7.655,23.249,15.86,41.609,22.174c20.312,6.985,44.675,3.219,46.043,2.87C964.815,1039.293,963.899,999.503,961.88,971.794z  " fill="#666666"/>
  <polygon points="705.71,0.003 0.168,0.108 0.168,1199.978 641.777,1200.108 622.994,1169.847   245.777,1158.369 38.516,1151.326 65.125,509.586 68.255,25.934 677.125,22.804 702.192,23.552 " fill="#666666"/>
</svg>