<?xml version="1.0" encoding="iso-8859-1"?>
<!-- Generator: Adobe Illustrator 30.5.1, SVG Export Plug-In . SVG Version: 9.03 Build 0)  -->
<svg version="1.1" id="Camada_1" xmlns="http://www.w3.org/2000/svg" xmlns:xlink="http://www.w3.org/1999/xlink" x="0px" y="0px"
	 viewBox="0 0 300 275" style="enable-background:new 0 0 300 275;" xml:space="preserve">
<g>
	<g>
		<path style="opacity:0.49;fill:#55665C;enable-background:new    ;" d="M0,187.5v25c0,0,0,37.5,50,50S300,225,300,225v-37.5H0z"/>
	</g>
	<g>
		<path style="opacity:0.49;fill:#6D6D6D;enable-background:new    ;" d="M300,237.5c0,0-12.5,37.5-50,37.5s-128.95-37.5-188.6-75
			s134.21,0,134.21,0L300,237.5z"/>
	</g>
	<g>
		<path style="opacity:0.38;fill:#6F7773;enable-background:new    ;" d="M0,200v12.5c32.55,26.107,71.31,43.333,112.5,50
			c73.6,11.69,130.61-14.86,150-25L300,200H0z"/>
	</g>
	<g>
		<path style="fill:#919191;" d="M0,0v212.5c0,0,62.5-12.5,150,25s150,0,150,0V0H0z"/>
	</g>
</g>
</svg>
